<svg id="svg" xmlns="http://www.w3.org/2000/svg" xmlns:xlink="http://www.w3.org/1999/xlink" width="400" height="356.23409669211196" viewBox="0, 0, 400,356.23409669211196"><g id="svgg"><path id="path0" d="M181.170 2.675 C 66.576 17.119,19.043 148.799,100.264 226.811 C 184.899 308.103,328.342 254.292,334.520 138.931 C 338.768 59.611,263.071 -7.648,181.170 2.675 M224.306 9.729 C 245.340 14.089,261.738 21.766,265.335 28.936 C 270.261 38.756,283.316 61.580,284.404 62.273 C 285.005 62.656,292.366 68.264,300.763 74.736 C 310.207 82.015,316.793 86.408,318.030 86.254 C 322.128 85.744,328.531 109.960,329.490 129.593 L 330.078 141.628 322.982 148.931 C 309.921 162.375,297.201 177.088,297.201 178.753 C 297.201 179.660,294.267 190.078,290.680 201.906 C 287.094 213.733,283.845 224.925,283.462 226.776 C 281.778 234.900,249.595 252.534,228.499 256.892 L 225.445 257.523 228.866 254.547 C 233.322 250.671,233.796 251.144,213.471 239.207 C 203.823 233.542,195.187 228.397,194.281 227.774 C 192.753 226.724,142.963 232.271,141.589 233.644 C 141.337 233.896,141.848 237.422,142.725 241.479 C 144.703 250.631,145.011 250.418,136.142 246.013 C 107.097 231.587,79.815 201.158,71.764 174.213 C 70.928 171.415,69.824 170.944,87.405 180.884 C 94.261 184.760,99.356 187.056,99.898 186.514 C 100.402 186.011,102.859 174.714,105.359 161.409 L 109.905 137.220 102.450 121.791 C 98.350 113.305,93.703 103.479,92.123 99.956 C 88.513 91.907,88.821 91.784,76.476 106.175 C 70.801 112.791,66.158 117.515,66.158 116.675 C 66.158 92.718,95.175 45.455,118.007 32.222 L 121.242 30.347 120.523 36.705 L 119.803 43.062 123.260 42.368 C 125.162 41.985,136.565 40.065,148.601 38.099 C 160.636 36.134,171.019 34.200,171.674 33.802 C 181.096 28.078,204.602 9.668,204.113 8.394 C 203.413 6.568,211.702 7.116,224.306 9.729 M180.375 102.263 L 164.822 128.107 184.447 152.028 C 195.240 165.184,204.591 176.173,205.226 176.447 C 206.313 176.916,261.330 154.358,262.748 152.861 C 263.707 151.850,258.087 90.739,256.942 89.716 C 256.139 89.000,197.997 76.160,196.438 76.355 C 196.158 76.390,188.930 88.048,180.375 102.263 M68.931 162.341 C 68.382 166.012,65.133 146.206,65.258 139.949 C 65.365 134.645,65.634 135.582,67.309 147.074 C 68.369 154.351,69.099 161.221,68.931 162.341 " stroke="none" fill="#000000" fill-rule="evenodd"></path></g></svg>