<?xml version="1.0" encoding="UTF-8" ?>
<!DOCTYPE svg PUBLIC "-//W3C//DTD SVG 1.1//EN" "http://www.w3.org/Graphics/SVG/1.1/DTD/svg11.dtd">
<svg width="250pt" height="250pt" viewBox="0 0 250 250" version="1.1" xmlns="http://www.w3.org/2000/svg">
<path fill="#ffffff" d=" M 0.00 0.00 L 250.00 0.00 L 250.00 250.00 L 0.00 250.00 L 0.00 0.00 Z" />
<path fill="#000000" d=" M 21.12 7.17 C 21.83 7.13 23.25 7.06 23.95 7.02 C 91.29 7.03 158.64 7.03 225.98 7.02 C 229.80 7.04 233.85 7.69 236.89 10.18 C 241.29 13.26 243.13 18.80 242.98 24.00 C 242.92 92.02 243.07 160.04 242.90 228.06 C 242.91 236.40 235.32 243.33 227.08 242.95 C 159.36 243.00 91.65 242.95 23.94 242.98 C 18.76 243.12 13.26 241.28 10.19 236.90 C 7.70 233.87 7.05 229.84 7.02 226.04 C 7.05 158.34 7.00 90.63 7.05 22.93 C 6.71 15.01 13.09 7.52 21.12 7.17 Z" />
<path fill="#ffffff" d=" M 16.94 15.93 C 18.88 14.26 21.54 13.98 24.00 13.94 C 91.34 13.94 158.68 13.94 226.02 13.94 C 228.46 13.98 231.12 14.26 233.05 15.92 C 235.47 17.80 236.07 21.03 236.06 23.92 C 236.08 51.29 236.03 78.67 236.08 106.05 C 236.70 112.13 232.68 117.21 230.80 122.71 C 225.29 123.31 219.87 124.49 214.64 126.32 C 205.31 118.11 196.03 109.85 186.74 101.60 C 180.71 105.32 174.91 109.39 169.38 113.82 C 174.00 125.34 178.57 136.87 183.22 148.37 C 179.75 152.72 176.74 157.39 174.32 162.40 C 161.94 163.13 149.58 163.92 137.20 164.60 C 135.43 171.46 134.30 178.45 133.49 185.49 C 144.87 190.49 156.35 195.30 167.77 200.23 C 168.35 205.75 169.54 211.18 171.38 216.42 C 165.58 222.97 159.76 229.49 153.96 236.04 C 144.67 236.08 135.37 236.05 126.08 236.05 C 124.21 229.75 121.76 223.65 119.37 217.53 C 109.14 219.09 98.92 220.65 88.69 222.22 C 86.36 217.78 83.81 213.45 80.97 209.31 C 87.21 201.08 93.43 192.83 99.68 184.60 C 94.69 178.52 89.42 172.67 83.87 167.09 C 75.03 172.44 66.21 177.84 57.36 183.19 C 53.54 179.93 49.53 176.92 45.31 174.19 C 47.92 164.18 50.54 154.17 53.13 144.16 C 46.22 140.42 39.11 137.07 31.87 134.03 C 25.87 142.15 19.90 150.29 13.93 158.44 C 13.96 113.61 13.93 68.79 13.94 23.96 C 13.92 21.06 14.52 17.82 16.94 15.93 Z" />
<path fill="#000000" d=" M 80.31 21.88 C 86.18 20.43 92.13 19.35 98.15 18.73 C 102.14 28.01 106.15 37.29 110.17 46.57 C 114.48 47.03 118.71 47.98 122.80 49.41 C 130.35 42.67 137.90 35.95 145.43 29.19 C 150.60 32.35 155.57 35.80 160.28 39.61 C 156.53 49.00 152.80 58.40 149.06 67.79 C 151.80 71.16 154.11 74.84 156.04 78.73 C 166.13 79.29 176.22 79.86 186.31 80.44 C 187.77 86.31 188.81 92.27 189.43 98.29 C 180.15 102.34 170.83 106.29 161.55 110.33 C 161.12 114.62 160.19 118.83 158.78 122.90 C 165.50 130.46 172.24 138.02 178.97 145.58 C 175.88 150.78 172.32 155.67 168.60 160.43 C 159.18 156.70 149.77 152.94 140.35 149.22 C 137.00 151.96 133.32 154.26 129.46 156.21 C 128.90 166.28 128.30 176.36 127.71 186.43 C 121.85 187.92 115.90 188.98 109.88 189.59 C 105.82 180.27 101.95 170.87 97.73 161.62 C 93.46 161.33 89.30 160.30 85.26 158.93 C 77.70 165.66 70.14 172.39 62.58 179.11 C 57.42 175.97 52.46 172.53 47.75 168.74 C 51.45 159.31 55.25 149.93 58.97 140.50 C 56.41 137.39 54.25 134.01 52.40 130.43 C 51.90 129.10 50.13 129.71 49.08 129.43 C 39.96 128.96 30.84 128.38 21.73 127.88 C 20.26 122.01 19.17 116.05 18.57 110.03 C 27.84 106.01 37.12 102.03 46.40 98.03 C 46.88 93.72 47.82 89.48 49.22 85.37 C 42.49 77.82 35.77 70.28 29.06 62.72 C 32.18 57.55 35.66 52.62 39.43 47.91 C 48.86 51.59 58.23 55.41 67.64 59.12 C 70.99 56.37 74.65 54.04 78.55 52.15 C 79.16 42.06 79.72 31.97 80.31 21.88 Z" />
<path fill="#6a75d7" d=" M 85.77 26.54 C 88.67 25.82 91.61 25.31 94.58 24.96 C 98.41 33.92 102.28 42.87 106.16 51.81 C 112.32 52.46 118.37 53.78 124.21 55.82 C 131.48 49.33 138.74 42.85 146.01 36.37 C 148.54 37.95 150.98 39.67 153.35 41.49 C 149.77 50.57 146.11 59.60 142.53 68.68 C 146.48 73.46 149.75 78.72 152.53 84.26 C 162.24 84.81 171.95 85.37 181.66 85.95 C 182.31 88.85 182.85 91.79 183.20 94.75 C 174.25 98.59 165.32 102.44 156.37 106.29 C 155.78 112.45 154.36 118.47 152.35 124.31 C 158.80 131.63 165.32 138.87 171.79 146.17 C 170.23 148.73 168.51 151.18 166.60 153.49 C 157.63 149.81 148.57 146.36 139.59 142.69 C 134.73 146.68 129.32 149.83 123.81 152.82 C 123.46 162.47 122.72 172.11 122.27 181.76 C 119.38 182.46 116.45 183.01 113.50 183.39 C 109.52 174.46 105.83 165.41 101.82 156.49 C 95.68 155.90 89.66 154.53 83.84 152.50 C 76.57 158.99 69.28 165.47 61.99 171.94 C 59.46 170.37 57.02 168.66 54.68 166.83 C 58.28 157.78 61.85 148.72 65.48 139.68 C 61.66 134.83 58.19 129.72 55.59 124.11 C 45.86 123.45 36.11 122.96 26.36 122.38 C 25.68 119.49 25.19 116.56 24.78 113.63 C 33.73 109.69 42.77 105.97 51.68 101.96 C 52.25 95.81 53.64 89.81 55.65 83.97 C 49.18 76.69 42.71 69.42 36.24 62.14 C 37.80 59.61 39.50 57.18 41.35 54.84 C 50.47 58.39 59.50 62.17 68.67 65.61 C 73.34 61.62 78.58 58.42 84.08 55.70 C 84.68 45.98 85.21 36.26 85.77 26.54 Z" />
<path fill="#000000" d=" M 97.23 71.21 C 113.77 67.37 131.86 78.28 136.28 94.64 C 141.29 110.22 132.81 128.50 117.77 134.86 C 103.36 141.67 84.67 136.30 76.05 122.89 C 66.79 109.62 69.17 89.92 81.36 79.27 C 85.80 75.23 91.34 72.39 97.23 71.21 Z" />
<path fill="#ffffff" d=" M 98.55 76.80 C 108.19 74.79 118.73 78.37 125.09 85.90 C 134.04 95.82 134.16 112.22 125.27 122.22 C 117.10 132.24 101.61 135.02 90.44 128.53 C 80.69 123.30 74.85 111.83 76.32 100.87 C 77.52 89.15 86.96 78.92 98.55 76.80 Z" />
<path fill="#9cca15" d=" M 176.35 115.72 C 179.47 113.19 182.77 110.91 186.21 108.82 C 195.21 116.78 204.19 124.76 213.18 132.74 C 220.19 130.34 227.40 128.69 234.78 127.91 C 235.08 127.23 235.69 125.88 236.00 125.20 C 236.00 134.21 236.01 143.22 235.99 152.23 C 224.06 152.78 212.53 158.90 205.41 168.49 C 198.89 177.02 196.12 188.25 197.67 198.85 C 199.47 212.05 208.27 224.07 220.35 229.71 C 224.19 231.76 228.52 232.52 232.68 233.71 C 230.68 235.01 228.46 236.06 226.02 235.98 C 204.57 236.02 183.12 236.00 161.67 235.99 C 167.03 229.91 172.43 223.87 177.78 217.78 C 175.34 210.78 173.74 203.55 172.92 196.18 C 161.88 191.44 150.82 186.72 139.78 181.96 C 140.20 177.96 140.87 173.99 141.85 170.09 C 153.85 169.38 165.84 168.65 177.84 167.94 C 181.15 161.29 185.08 155.01 189.74 149.23 C 185.28 138.06 180.81 126.89 176.35 115.72 Z" />
<path fill="#9cca15" d=" M 16.97 164.05 C 22.55 156.41 28.15 148.78 33.75 141.16 C 38.06 142.95 42.29 144.94 46.40 147.16 C 43.87 156.98 41.27 166.79 38.76 176.62 C 45.07 180.77 51.11 185.30 56.91 190.15 C 65.59 184.92 74.23 179.63 82.90 174.38 C 86.23 177.69 89.35 181.18 92.30 184.82 C 86.20 192.91 80.09 200.99 73.98 209.07 C 78.21 215.34 82.10 221.82 85.61 228.53 C 95.63 226.99 105.66 225.44 115.68 223.91 C 117.31 227.88 118.79 231.89 120.03 236.00 C 100.81 235.92 81.58 236.17 62.36 235.87 C 52.24 215.76 34.64 199.64 14.01 190.73 C 13.98 182.30 14.02 173.86 13.99 165.42 C 15.33 165.71 16.32 165.25 16.97 164.05 Z" />
<path fill="#ffffff" d=" M 204.61 182.45 C 208.72 168.82 221.83 158.63 236.06 157.99 C 236.06 181.28 236.07 204.56 236.05 227.84 C 224.42 227.48 213.31 220.55 207.65 210.42 C 202.78 202.07 201.69 191.65 204.61 182.45 Z" />
<path fill="#ffffff" d=" M 13.95 196.99 C 31.63 205.14 46.59 219.04 56.05 236.05 C 44.66 235.98 33.27 236.22 21.89 235.94 C 17.67 235.87 14.08 232.22 14.05 228.01 C 13.79 217.68 14.02 207.33 13.95 196.99 Z" />
</svg>
