<?xml version="1.0" encoding="UTF-8"?>
<svg xmlns="http://www.w3.org/2000/svg" xmlns:xlink="http://www.w3.org/1999/xlink" width="300.000000" height="267.000000" viewBox="0 0 300.000000 267.000000" version="1.1">
<g id="surface1">
<path d="M1287 2640 c-199 -36 -385 -131 -536 -275 -213 -204 -312 -451 -298
-748 27 -593 595 -1026 1208 -921 434 75 761 393 834 813 87 495 -233 975
-742 1113 -62 16 -114 21 -248 24 -93 1 -192 -1 -218 -6z m203 -29 c0 -5 -48
-44 -106 -87 -86 -62 -117 -79 -158 -86 -28 -4 -87 -15 -131 -23 -163 -28
-155 -28 -155 -5 0 12 -4 29 -9 39 -9 15 1 23 64 55 107 52 250 98 325 104 36
2 67 6 69 8 9 8 101 3 101 -5z m230 -22 c47 -12 122 -37 166 -56 l82 -34 40
-77 c103 -199 111 -208 243 -308 68 -52 127 -94 131 -94 5 0 8 6 9 13 0 6 9
-10 20 -38 52 -127 83 -386 49 -405 -9 -5 -62 -61 -120 -125 -77 -85 -107
-128 -116 -158 -68 -254 -106 -363 -132 -385 -72 -61 -200 -124 -342 -168
l-75 -23 33 28 c40 34 43 32 -123 126 -66 38 -123 73 -126 78 -6 9 -384 -35
-395 -46 -3 -3 1 -30 9 -61 8 -31 10 -56 5 -56 -16 0 -92 42 -174 96 -190 125
-354 362 -400 577 -21 99 -30 237 -15 237 6 0 11 -18 11 -46 0 -70 31 -268 44
-281 19 -20 205 -122 209 -115 2 4 19 90 37 192 l32 185 -71 148 c-39 82 -71
153 -71 159 0 5 50 93 111 195 76 126 108 188 101 195 -12 12 -18 2 -148 -215
-61 -102 -80 -143 -71 -149 9 -6 8 -8 -3 -8 -8 0 -51 -43 -94 -95 -44 -52 -82
-93 -84 -91 -5 6 34 155 57 216 26 70 96 188 155 262 39 49 180 176 206 186 4
1 3 -18 -3 -43 -6 -25 -8 -47 -5 -50 2 -3 90 10 194 27 l189 32 115 84 c141
103 139 100 120 113 -23 16 99 2 200 -22z m405 -189 c124 -108 233 -245 255
-319 l9 -31 -58 42 c-32 24 -85 63 -119 88 -52 38 -70 61 -121 150 -33 58 -63
113 -67 123 -6 18 -6 18 27 0 19 -10 52 -34 74 -53z m-1455 -500 c0 -5 28 -66
62 -134 l61 -126 -27 -142 c-14 -79 -29 -153 -32 -166 l-5 -23 -53 30 c-29 17
-61 31 -70 31 -10 0 -15 4 -12 9 3 5 -5 12 -19 15 -20 5 -25 13 -25 39 -1 69
-30 251 -45 273 -17 26 -20 54 -6 54 10 0 61 44 61 52 0 3 21 28 47 56 43 46
63 56 63 32z m1794 -397 c-20 -141 -107 -328 -199 -432 -61 -68 -99 -103 -103
-93 -4 12 43 178 63 227 7 17 18 53 25 81 10 44 24 66 93 139 45 48 89 96 97
106 24 30 32 22 24 -28z m-984 -595 c0 -5 6 -8 13 -8 8 0 32 -12 53 -28 21
-15 55 -36 75 -46 66 -34 70 -40 56 -69 -14 -31 -24 -34 -137 -43 -124 -9
-305 16 -410 57 -22 8 -25 16 -27 64 -2 64 -22 56 187 82 139 17 190 15 190
-9z"/>
<path d="M1554 2589 c-10 -4 -16 -8 -12 -8 4 -1 78 -17 164 -36 181 -41 217
-43 119 -9 -118 41 -239 65 -271 53z"/>
<path d="M1296 2401 c-9 -13 155 -291 170 -291 8 0 14 2 14 5 0 12 -164 295
-171 295 -4 0 -10 -4 -13 -9z"/>
<path d="M2020 2117 c-50 -48 -92 -90 -93 -94 -1 -4 5 -9 13 -10 8 -1 55 36
105 82 66 63 87 87 78 96 -8 8 -35 -11 -103 -74z"/>
<path d="M1355 1905 c-107 -177 -116 -197 -103 -213 8 -9 76 -92 152 -184
l136 -167 38 16 c181 75 352 148 373 158 l25 14 -17 183 c-10 101 -19 205 -21
232 -2 31 -9 52 -18 57 -8 4 -105 26 -215 49 -110 23 -207 44 -216 46 -13 4
-46 -43 -134 -191z m345 110 c112 -25 204 -46 205 -48 8 -12 35 -421 28 -426
-4 -4 -24 -14 -43 -21 -38 -14 -106 -43 -157 -66 -17 -8 -34 -14 -38 -14 -3 0
-30 -11 -58 -24 -94 -44 -83 -48 -184 76 -50 62 -105 129 -122 148 -17 19 -35
41 -42 48 -16 19 -5 49 45 127 25 39 46 75 46 82 0 6 3 13 8 15 4 2 27 36 51
76 24 39 47 72 51 72 4 0 98 -20 210 -45z"/>
<path d="M992 1690 c-165 -22 -164 -21 -154 -37 10 -16 384 27 390 45 5 17
-59 14 -236 -8z"/>
<path d="M1985 1521 c-6 -10 12 -24 143 -115 74 -51 102 -61 102 -37 0 7 -224
161 -234 161 -3 0 -7 -4 -11 -9z"/>
<path d="M1535 1318 c-20 -53 -93 -323 -89 -330 11 -17 24 -6 34 30 5 20 27
99 49 175 30 106 35 137 24 137 -7 0 -16 -6 -18 -12z"/>
<path d="M755 1259 c-4 -5 -1 -18 7 -27 17 -20 245 -280 265 -302 10 -11 15
-12 25 -2 10 10 2 22 -33 60 -25 26 -92 100 -148 165 -57 64 -105 117 -106
117 -2 0 -7 -5 -10 -11z"/>
<path d="M2030 974 c-101 -54 -283 -156 -289 -161 -3 -2 0 -8 5 -13 7 -7 69
22 183 84 182 99 195 108 190 125 -2 6 -41 -10 -89 -35z"/>
</g>
</svg>
