<svg id="svg" version="1.1" xmlns="http://www.w3.org/2000/svg" xmlns:xlink="http://www.w3.org/1999/xlink" width="400" height="410.83249749247744" viewBox="0, 0, 400,410.83249749247744"><g id="svgg"><path id="path0" d="M71.148 39.553 C 63.194 42.947,53.168 52.744,45.670 64.448 C 40.758 72.115,41.916 116.537,47.441 132.397 C 47.564 132.750,48.451 131.361,49.610 128.997 C 51.845 124.442,52.885 122.958,53.552 123.371 C 53.882 123.575,53.798 123.963,53.257 124.728 C 47.374 133.059,45.051 146.987,46.976 162.400 C 47.347 165.370,47.754 171.532,47.882 176.093 L 48.113 184.386 51.357 185.969 C 61.568 190.952,66.092 202.614,62.210 213.947 L 61.063 217.293 62.032 218.063 C 70.267 224.605,80.516 230.420,91.141 234.579 C 94.902 236.051,96.427 237.161,94.325 236.896 C 91.632 236.556,79.011 230.700,72.362 226.706 C 56.673 217.282,47.536 206.444,46.181 195.652 L 45.912 193.505 37.256 193.707 C 32.343 193.821,26.517 194.207,23.783 194.599 L 18.966 195.289 16.327 193.445 C 12.817 190.991,12.687 191.022,12.859 194.262 L 13.000 196.924 8.500 196.927 C 3.359 196.931,3.176 197.086,5.400 199.547 C 7.220 201.562,7.190 201.691,4.644 202.746 C 1.531 204.037,0.730 205.013,2.251 205.663 C 5.194 206.921,5.434 208.006,3.425 210.971 C 1.240 214.194,1.327 214.600,4.200 214.600 L 6.600 214.600 6.715 218.300 L 6.830 222.000 8.515 221.994 C 10.328 221.987,11.000 221.691,11.000 220.900 C 11.000 219.913,11.857 220.446,15.600 223.757 C 36.216 241.993,57.183 253.011,78.505 256.810 C 79.993 257.076,81.321 257.472,81.456 257.691 C 81.872 258.364,80.760 258.733,79.449 258.357 C 78.765 258.161,77.831 258.000,77.374 258.000 L 76.542 258.000 77.305 260.900 C 77.982 263.475,78.031 264.517,77.740 270.200 C 77.335 278.143,77.350 288.931,77.785 301.217 C 78.103 310.200,78.075 310.854,77.183 315.417 C 69.633 354.016,98.147 378.211,131.458 361.470 C 138.917 357.721,148.102 350.965,155.800 343.564 C 162.470 337.152,171.021 332.471,185.800 327.143 C 214.907 316.650,222.356 292.105,207.753 254.800 C 205.253 248.412,196.374 230.033,194.806 228.000 L 194.035 227.000 191.117 229.805 C 185.709 235.005,184.880 235.697,184.405 235.403 C 184.106 235.219,186.156 232.858,190.089 228.857 C 205.913 212.761,218.110 193.523,226.389 171.600 L 228.278 166.600 231.783 164.723 C 233.710 163.690,235.387 162.747,235.508 162.625 C 235.918 162.216,234.211 160.689,232.476 159.913 C 230.884 159.201,230.366 158.200,231.589 158.200 C 232.019 158.200,233.172 155.398,233.194 154.300 C 233.197 154.135,232.213 154.000,231.006 154.000 L 228.812 154.000 229.070 151.537 L 229.327 149.075 227.764 149.375 C 223.564 150.182,223.975 150.293,224.146 148.396 C 224.497 144.495,224.154 144.459,220.311 148.000 C 216.744 151.287,216.880 151.243,216.555 149.208 C 216.113 146.445,215.523 146.044,214.159 147.579 C 212.052 149.953,210.032 151.260,205.726 153.040 C 197.764 156.330,192.346 159.525,184.883 165.331 C 182.149 167.459,180.840 168.726,180.985 169.106 C 183.459 175.553,181.502 188.748,176.877 196.800 C 171.621 205.950,158.928 222.000,156.947 222.000 C 156.028 222.000,156.293 221.601,159.308 218.444 C 163.919 213.616,174.000 200.351,174.000 199.112 C 174.000 198.989,173.325 198.765,172.500 198.613 C 164.068 197.061,160.545 189.440,162.600 177.200 C 164.409 166.428,168.695 161.265,175.874 161.210 L 177.148 161.200 175.810 158.300 C 172.701 151.562,170.619 143.878,169.985 136.800 C 169.040 126.244,166.855 120.185,162.668 116.512 C 160.990 115.041,160.731 114.162,162.100 114.585 C 169.235 116.793,195.857 120.400,205.012 120.400 L 207.875 120.400 214.038 116.565 C 228.137 107.791,237.783 99.138,236.677 96.258 C 236.298 95.269,223.343 92.148,214.200 90.842 C 190.021 87.390,163.713 89.650,138.032 97.387 C 133.451 98.767,132.657 98.838,133.043 97.833 C 133.197 97.430,132.352 97.129,129.725 96.650 C 109.501 92.965,89.645 96.638,73.737 107.007 C 69.969 109.463,62.604 114.947,62.204 115.594 C 61.830 116.199,61.200 116.085,61.200 115.412 C 61.200 115.088,62.338 113.912,63.728 112.797 L 66.257 110.771 67.908 103.886 C 72.411 85.109,74.694 67.685,75.086 49.100 C 75.346 36.763,75.696 37.613,71.148 39.553 M149.068 137.277 C 154.620 140.050,157.423 146.488,155.637 152.367 C 151.755 165.149,134.000 160.886,134.000 147.172 C 134.000 138.831,141.853 133.674,149.068 137.277 M73.277 152.070 C 78.955 153.771,82.081 161.877,79.609 168.484 C 77.295 174.669,70.779 177.922,65.537 175.509 C 52.504 169.510,59.615 147.977,73.277 152.070 M390.200 157.467 C 348.552 165.346,306.861 179.498,266.600 199.422 C 252.350 206.474,253.203 205.897,253.188 208.494 C 253.169 211.680,248.975 266.758,248.733 267.001 C 248.617 267.117,243.701 266.984,237.810 266.706 C 230.717 266.371,227.058 266.335,226.979 266.600 C 226.913 266.820,226.775 269.573,226.672 272.718 L 226.484 278.437 227.787 276.928 L 229.091 275.420 229.724 277.610 C 230.072 278.815,230.581 280.644,230.855 281.676 C 231.422 283.811,231.791 283.840,232.178 281.779 C 232.532 279.890,233.095 280.153,234.781 282.994 L 236.162 285.322 236.781 283.865 L 237.400 282.409 238.873 283.804 C 240.833 285.661,240.800 285.695,240.800 281.800 L 240.800 278.400 243.944 278.400 C 247.876 278.400,257.752 279.377,263.354 280.320 C 265.689 280.714,267.600 280.937,267.599 280.818 C 267.599 280.698,268.325 275.470,269.212 269.200 C 270.099 262.930,271.269 254.660,271.811 250.822 C 272.353 246.983,272.933 243.716,273.098 243.560 C 273.465 243.217,286.592 240.836,297.000 239.225 C 308.135 237.502,314.702 236.657,331.400 234.799 C 343.966 233.400,366.365 231.600,371.199 231.600 L 373.495 231.600 376.790 219.900 C 383.010 197.812,391.225 172.487,396.464 159.249 C 397.106 157.626,397.580 156.255,397.516 156.202 C 397.452 156.149,394.160 156.718,390.200 157.467 M108.257 165.403 C 108.557 166.185,107.448 167.867,106.417 168.195 C 105.397 168.518,103.450 167.605,103.280 166.723 C 103.003 165.284,107.730 164.031,108.257 165.403 M136.967 171.900 C 137.132 172.065,136.418 172.937,135.380 173.837 L 133.494 175.474 134.148 180.637 C 136.519 199.341,131.926 220.915,124.788 224.606 C 119.799 227.186,112.417 219.463,99.759 198.423 C 97.378 194.466,94.523 190.015,93.415 188.531 L 91.400 185.834 88.114 185.198 C 84.698 184.537,84.162 184.308,84.552 183.677 C 84.693 183.449,85.692 183.515,87.092 183.844 C 92.155 185.036,96.128 184.082,100.800 180.552 C 107.281 175.657,108.972 175.256,119.600 176.093 C 129.207 176.851,130.445 176.586,134.800 172.837 C 136.317 171.532,136.513 171.447,136.967 171.900 M180.834 252.841 C 185.869 254.491,195.475 261.288,194.032 262.180 C 193.802 262.323,192.206 261.295,190.487 259.895 C 178.799 250.381,168.966 250.725,158.460 261.017 L 154.236 265.156 157.018 267.663 C 163.443 273.455,172.200 283.164,171.563 283.789 C 171.275 284.072,170.824 283.826,170.115 283.000 C 161.312 272.734,151.188 263.300,149.369 263.670 C 148.419 263.862,151.180 268.998,155.646 275.347 C 158.042 278.753,159.133 280.627,158.870 280.890 C 158.240 281.520,150.547 270.564,148.540 266.181 C 147.560 264.041,146.681 263.200,145.426 263.200 C 143.393 263.200,146.515 270.458,152.691 280.090 C 155.499 284.469,156.230 286.284,154.841 285.425 C 154.229 285.047,147.779 274.405,145.794 270.500 C 144.422 267.799,143.710 266.800,143.157 266.800 C 138.617 266.800,154.659 292.117,167.578 305.340 C 184.001 322.149,191.318 320.285,182.711 301.486 C 181.809 299.515,181.589 298.651,181.908 298.332 C 182.878 297.362,186.880 306.652,187.653 311.673 C 189.998 326.899,170.005 314.398,153.434 290.276 C 149.351 284.334,149.417 284.351,149.973 289.336 C 150.932 297.942,154.379 305.201,161.480 313.570 C 162.866 315.203,164.000 316.778,164.000 317.070 C 164.000 320.281,154.312 307.162,151.459 300.086 C 149.792 295.954,148.770 291.157,148.641 286.870 C 148.524 282.944,148.497 282.847,146.634 279.617 C 141.222 270.234,139.957 265.966,142.500 265.673 C 143.488 265.560,143.600 265.390,143.600 264.000 C 143.600 262.216,144.378 261.745,146.509 262.240 C 147.219 262.405,148.309 262.493,148.930 262.436 C 149.627 262.373,150.691 262.751,151.708 263.424 L 153.355 264.514 155.978 261.692 C 163.992 253.068,172.396 250.075,180.834 252.841 M94.052 367.715 C 91.617 383.118,91.872 399.382,94.627 404.396 C 95.161 405.369,95.169 405.357,94.889 404.000 C 93.992 399.656,94.732 386.400,95.871 386.400 C 96.347 386.400,96.431 386.659,96.230 387.500 C 95.159 391.973,95.834 407.194,97.163 408.523 C 98.360 409.720,102.603 402.930,101.740 401.201 C 100.656 399.028,101.139 390.237,102.352 390.065 C 103.170 389.950,103.273 390.062,103.079 390.865 C 102.272 394.218,102.318 401.200,103.147 401.200 C 103.454 401.200,105.180 398.013,105.379 397.079 C 105.471 396.652,105.943 395.546,107.810 391.388 C 109.214 388.261,112.096 376.580,113.013 370.300 L 113.291 368.400 109.945 368.400 C 105.184 368.400,98.490 366.961,95.293 365.250 C 94.563 364.859,94.477 365.029,94.052 367.715 " stroke="none" fill="#f6da0e" fill-rule="evenodd"></path><path id="path1" d="M67.169 1.954 C 62.898 6.385,54.864 22.809,49.955 37.143 C 39.959 66.334,38.617 100.144,46.196 131.862 C 46.958 135.052,47.081 136.211,46.770 137.262 C 45.090 142.937,44.829 151.412,45.974 163.100 C 47.271 176.339,47.337 184.800,46.190 190.910 L 45.934 192.279 37.867 192.513 C 33.430 192.643,27.405 193.055,24.477 193.429 L 19.154 194.110 16.439 192.255 C 12.496 189.560,11.414 189.885,11.662 193.686 L 11.800 195.800 7.400 196.000 C 2.257 196.234,1.885 196.616,3.983 199.513 C 5.475 201.572,5.480 201.445,3.879 201.974 C 0.262 203.168,-0.848 205.468,1.683 206.525 C 4.076 207.526,4.150 207.972,2.364 210.603 C -0.049 214.158,0.195 215.333,3.400 215.600 L 5.800 215.800 5.914 219.000 C 6.076 223.564,6.464 223.863,10.886 222.836 C 12.344 222.497,12.443 222.553,16.181 225.834 C 34.418 241.840,54.984 253.016,73.507 256.986 C 76.188 257.561,77.576 263.432,76.868 271.200 C 75.967 281.080,75.915 283.670,76.454 291.874 C 77.189 303.076,77.128 310.575,76.268 314.577 C 71.897 334.929,78.467 355.150,92.024 363.070 C 93.168 363.738,93.257 363.936,93.067 365.400 C 90.182 387.717,90.674 401.523,94.526 406.282 C 95.024 406.897,95.645 407.895,95.907 408.500 C 96.966 410.948,99.740 409.297,102.166 404.774 C 102.807 403.578,103.763 402.078,104.290 401.440 C 107.683 397.335,112.050 384.347,113.853 373.000 C 114.697 367.690,114.313 368.185,118.200 367.396 C 130.155 364.969,142.732 357.514,155.876 345.065 C 163.059 338.261,171.414 333.609,185.800 328.404 C 192.535 325.967,199.638 321.869,203.671 318.093 L 205.693 316.200 210.346 316.000 L 215.000 315.800 217.954 308.700 C 219.579 304.795,221.109 301.600,221.354 301.600 C 221.599 301.601,226.199 302.850,231.577 304.377 C 236.954 305.903,241.499 307.063,241.677 306.953 C 241.854 306.843,242.000 300.616,242.000 293.115 L 242.000 279.476 247.100 279.733 C 252.397 279.999,259.760 280.832,265.101 281.768 C 268.924 282.438,268.549 282.944,269.525 275.800 C 269.976 272.500,271.106 264.220,272.038 257.400 C 272.969 250.580,273.850 244.861,273.995 244.690 C 276.052 242.281,353.671 232.800,371.343 232.800 C 374.579 232.800,374.250 233.346,376.942 223.519 C 382.619 202.798,390.082 179.370,396.234 162.954 C 398.989 155.604,399.218 154.624,398.100 154.950 C 397.715 155.063,395.150 155.534,392.400 155.997 C 361.100 161.271,320.992 173.634,288.000 188.178 C 276.000 193.468,253.505 204.362,252.495 205.372 C 252.360 205.507,251.801 212.718,249.391 245.400 C 247.662 268.858,248.335 266.157,244.293 265.860 C 242.482 265.727,237.635 265.498,233.522 265.350 L 226.045 265.082 225.840 266.041 C 225.728 266.569,225.518 271.275,225.373 276.500 C 225.140 284.932,225.037 285.999,224.455 285.991 C 224.095 285.986,222.102 285.486,220.026 284.879 L 216.252 283.775 215.523 278.704 C 213.525 264.800,205.688 244.430,196.043 228.072 L 194.810 225.982 198.986 220.951 C 211.494 205.881,222.603 186.205,228.919 167.933 C 229.046 167.567,230.582 166.521,232.334 165.610 C 237.314 163.019,237.722 162.044,234.701 159.957 C 233.985 159.463,233.345 159.021,233.278 158.974 C 233.210 158.927,233.446 157.766,233.801 156.395 C 234.643 153.147,234.479 152.800,232.102 152.800 L 230.180 152.800 230.190 150.500 L 230.200 148.200 228.800 148.227 C 228.030 148.242,226.905 148.397,226.300 148.571 L 225.200 148.887 225.200 146.692 C 225.200 142.936,224.193 142.947,220.214 146.749 C 218.977 147.931,217.901 148.831,217.824 148.749 C 217.747 148.667,217.403 147.922,217.060 147.094 C 216.084 144.739,215.508 144.812,212.466 147.682 C 210.277 149.747,209.076 150.516,206.370 151.588 C 198.599 154.665,190.399 159.475,183.779 164.843 C 180.542 167.467,180.368 167.474,179.600 165.000 C 179.326 164.120,178.150 161.150,176.987 158.400 C 173.448 150.038,171.901 144.578,171.207 138.000 C 169.978 126.349,168.383 120.967,165.055 117.244 L 164.200 116.287 165.239 116.536 C 187.633 121.897,222.629 123.032,252.800 119.377 C 275.182 116.666,278.099 114.683,268.306 108.839 C 232.310 87.355,188.604 82.458,143.177 94.817 L 135.904 96.796 132.052 96.016 C 110.059 91.566,89.438 95.300,71.909 106.907 C 67.771 109.647,67.459 109.740,68.027 108.066 C 70.348 101.220,74.139 78.659,75.667 62.600 C 76.328 55.656,76.327 30.596,75.665 23.600 C 73.488 0.583,72.042 -3.102,67.169 1.954 M75.308 46.438 C 75.117 63.346,73.083 81.068,69.366 98.200 C 66.725 110.371,66.694 110.452,63.766 112.879 C 62.360 114.046,61.207 115.135,61.205 115.300 C 61.194 116.012,62.181 115.437,65.290 112.924 C 79.613 101.343,94.517 95.722,112.000 95.307 C 122.019 95.069,133.200 96.401,133.200 97.833 C 133.200 98.611,133.745 98.555,137.630 97.380 C 146.078 94.824,157.486 92.281,166.043 91.046 C 189.700 87.631,211.410 88.755,232.200 94.471 C 237.599 95.956,237.428 95.786,236.143 98.364 C 233.962 102.740,226.433 108.987,214.291 116.492 L 207.400 120.752 201.800 120.373 C 187.688 119.416,166.972 116.462,162.529 114.773 C 160.948 114.172,161.193 114.989,163.177 116.938 C 166.607 120.306,168.725 125.432,169.565 132.400 C 169.818 134.490,170.209 137.730,170.435 139.600 C 171.121 145.276,173.280 152.578,176.128 158.857 C 177.332 161.511,177.285 161.597,174.633 161.609 C 168.109 161.637,163.873 167.777,162.367 179.388 C 161.034 189.666,164.240 196.318,171.427 198.190 C 172.689 198.519,173.798 198.865,173.893 198.960 C 174.662 199.729,165.122 212.516,159.502 218.250 C 157.202 220.597,156.461 221.591,156.837 221.823 C 158.376 222.774,173.405 203.528,177.557 195.289 C 181.588 187.291,182.993 176.615,180.970 169.353 C 180.323 167.028,196.823 156.259,206.738 152.536 C 209.544 151.482,213.108 149.010,214.181 147.373 C 215.138 145.913,215.909 146.165,216.404 148.100 C 216.644 149.035,216.922 150.043,217.022 150.339 C 217.140 150.688,218.356 149.795,220.463 147.814 C 224.089 144.403,224.384 144.409,224.394 147.900 C 224.401 150.259,224.444 150.281,227.318 149.409 C 229.609 148.714,229.838 148.982,229.227 151.633 C 229.003 152.605,228.815 153.556,228.810 153.746 C 228.804 153.936,229.816 153.965,231.058 153.810 L 233.316 153.528 233.093 154.864 C 232.737 156.995,232.069 158.400,231.410 158.400 C 230.258 158.400,230.816 159.002,233.106 160.232 C 236.373 161.987,236.276 162.389,232.051 164.617 L 228.459 166.511 226.956 170.555 C 218.470 193.400,204.310 215.670,188.859 230.473 C 186.407 232.822,184.400 234.847,184.400 234.973 C 184.400 235.829,185.947 234.641,189.680 230.920 C 192.041 228.566,194.078 226.745,194.205 226.872 C 195.426 228.093,203.210 243.586,206.327 251.000 C 223.053 290.782,216.106 316.408,185.609 327.430 C 171.315 332.595,163.151 337.010,156.690 343.067 C 128.080 369.888,102.760 374.630,85.824 356.337 C 77.319 347.150,73.608 329.879,77.072 315.600 C 77.697 313.025,77.779 311.268,77.652 303.200 C 77.374 285.606,77.403 275.009,77.743 270.000 C 78.074 265.123,77.845 262.899,76.552 258.433 C 76.329 257.664,76.397 257.513,76.885 257.700 C 78.305 258.245,81.200 258.482,81.200 258.053 C 81.200 257.812,80.795 257.525,80.300 257.416 C 79.805 257.306,77.240 256.747,74.600 256.173 C 54.493 251.802,32.382 239.609,14.540 223.053 C 11.662 220.382,10.666 219.840,10.882 221.063 C 11.021 221.842,9.096 222.528,7.700 222.198 C 6.850 221.997,6.800 221.787,6.800 218.411 L 6.800 214.838 4.332 214.719 C 1.267 214.571,1.196 214.349,3.213 211.228 C 5.173 208.195,5.137 207.322,3.000 206.126 C 0.813 204.902,0.967 204.462,4.133 202.905 C 7.126 201.433,7.063 201.746,4.909 199.069 C 3.261 197.020,3.539 196.838,8.500 196.713 C 11.204 196.645,12.979 196.440,12.947 196.200 C 12.919 195.980,12.772 194.944,12.622 193.897 C 12.232 191.171,12.971 191.065,16.412 193.352 L 19.193 195.202 23.097 194.605 C 29.032 193.697,41.931 192.976,44.246 193.423 L 46.200 193.800 46.466 196.214 C 47.747 207.819,60.058 220.606,79.400 230.420 C 85.485 233.508,93.354 236.800,94.650 236.800 C 95.959 236.800,94.675 236.076,90.127 234.249 C 80.572 230.413,68.605 223.639,62.747 218.750 L 60.894 217.204 62.105 213.702 C 65.929 202.639,61.332 190.880,51.339 186.168 L 48.120 184.649 47.874 177.025 C 47.738 172.831,47.244 165.800,46.775 161.400 C 45.097 145.665,46.882 135.004,52.849 125.108 C 53.860 123.431,53.562 122.519,52.491 124.011 C 51.379 125.560,49.768 128.579,48.773 130.980 C 47.601 133.807,47.478 133.643,46.246 127.600 C 42.501 109.231,41.301 86.088,43.319 71.144 C 44.683 61.049,60.050 44.001,72.341 38.949 C 75.550 37.629,75.411 37.278,75.308 46.438 M141.869 136.600 C 131.049 139.359,131.690 156.245,142.736 159.457 C 149.576 161.445,155.477 157.028,155.905 149.600 C 156.382 141.322,149.251 134.717,141.869 136.600 M143.960 140.180 C 146.460 141.472,147.236 144.984,145.474 147.032 C 143.179 149.701,138.400 147.365,138.400 143.575 C 138.400 140.502,141.235 138.770,143.960 140.180 M66.469 152.084 C 57.026 155.276,56.352 171.961,65.525 175.470 C 76.004 179.479,84.787 165.665,78.016 155.824 C 75.665 152.407,70.481 150.727,66.469 152.084 M73.432 155.554 C 78.179 158.449,74.107 165.854,69.038 163.545 C 66.150 162.229,66.294 157.428,69.276 155.610 C 70.922 154.607,71.858 154.594,73.432 155.554 M397.478 156.700 C 397.360 157.085,395.708 161.630,393.809 166.800 C 388.272 181.867,381.528 203.153,376.170 222.478 C 374.908 227.030,373.761 230.940,373.621 231.166 C 373.482 231.392,370.405 231.766,366.784 231.999 C 347.004 233.267,329.498 234.988,309.600 237.621 C 296.749 239.321,275.509 242.851,273.764 243.577 C 272.990 243.899,272.738 245.286,270.376 262.180 C 268.973 272.221,267.729 280.592,267.611 280.782 C 267.493 280.973,265.327 280.799,262.798 280.395 C 256.682 279.419,250.331 278.804,245.200 278.692 L 241.000 278.600 240.884 282.100 C 240.753 286.088,240.754 286.087,238.921 284.200 C 238.173 283.430,237.500 282.800,237.425 282.800 C 237.350 282.800,237.171 283.430,237.026 284.200 C 236.663 286.139,236.285 285.974,234.551 283.119 L 233.044 280.638 232.540 281.819 C 232.263 282.469,232.028 283.214,232.018 283.476 C 231.956 285.124,231.167 283.830,230.195 280.485 C 228.813 275.731,228.976 275.906,227.515 277.600 L 226.308 279.000 226.536 272.651 C 226.661 269.160,226.825 266.241,226.900 266.167 C 226.975 266.092,231.770 266.249,237.556 266.516 C 243.342 266.782,248.228 266.906,248.415 266.791 C 248.602 266.675,249.486 256.865,250.381 244.991 C 251.275 233.116,252.275 219.851,252.604 215.513 C 252.932 211.175,253.200 207.251,253.200 206.794 C 253.200 205.419,281.902 191.512,299.200 184.506 C 329.896 172.073,359.097 163.352,389.800 157.446 C 398.468 155.779,397.739 155.850,397.478 156.700 M178.244 163.843 C 182.151 173.194,181.429 186.230,176.511 195.150 L 175.105 197.700 173.184 197.473 C 166.262 196.653,163.378 192.315,163.429 182.800 C 163.499 169.852,167.972 162.557,175.920 162.428 C 177.528 162.402,177.680 162.495,178.244 163.843 M104.482 165.468 C 102.937 166.229,102.922 167.213,104.448 167.749 C 106.520 168.478,108.746 166.987,108.105 165.300 C 107.841 164.608,106.060 164.690,104.482 165.468 M134.590 173.118 C 133.495 173.985,131.612 175.194,130.404 175.803 L 128.208 176.911 123.204 176.407 C 116.563 175.739,107.838 175.985,106.165 176.887 C 105.485 177.254,103.595 178.570,101.965 179.811 C 96.307 184.120,92.775 185.032,86.300 183.855 C 85.056 183.628,84.400 183.649,84.400 183.915 C 84.400 184.332,87.015 185.032,89.742 185.346 C 90.590 185.443,91.421 185.676,91.589 185.862 C 92.862 187.269,96.561 192.873,99.902 198.456 C 111.310 217.517,118.929 226.026,123.658 224.987 C 131.278 223.314,137.125 196.919,133.890 178.800 L 133.283 175.400 134.518 174.400 C 135.197 173.850,136.013 173.204,136.331 172.965 C 136.650 172.726,136.836 172.307,136.745 172.035 C 136.639 171.718,135.864 172.107,134.590 173.118 M51.461 187.194 C 60.494 191.707,64.737 203.184,61.187 213.500 C 60.072 216.740,59.923 216.701,55.818 212.117 C 49.071 204.582,46.792 198.774,47.336 190.496 C 47.678 185.290,47.668 185.298,51.461 187.194 M128.200 188.434 C 129.080 188.653,130.160 188.997,130.600 189.196 C 131.040 189.396,131.760 189.615,132.200 189.684 C 133.305 189.858,133.526 197.805,132.602 204.200 C 130.421 219.302,124.993 226.954,119.360 222.868 C 116.265 220.623,106.000 207.668,106.000 206.006 C 106.000 205.759,105.280 204.496,104.400 203.200 C 103.520 201.904,102.800 200.465,102.800 200.002 C 102.800 198.982,103.879 196.800,104.383 196.800 C 104.583 196.800,104.858 196.448,104.994 196.019 C 106.848 190.179,119.124 186.166,128.200 188.434 M169.600 252.590 C 164.916 253.941,161.391 256.273,156.655 261.157 C 154.926 262.941,153.437 264.400,153.347 264.400 C 153.257 264.400,152.493 263.944,151.651 263.386 C 150.610 262.698,149.617 262.387,148.559 262.419 C 147.702 262.445,146.504 262.340,145.898 262.186 C 144.436 261.815,143.600 262.556,143.600 264.222 C 143.600 265.370,143.453 265.564,142.500 265.673 C 140.046 265.956,141.903 271.657,147.443 280.852 C 148.730 282.989,148.800 283.298,148.800 286.876 C 148.800 292.867,150.729 299.338,154.460 305.860 C 156.563 309.535,162.621 317.200,163.424 317.200 C 164.246 317.200,164.262 317.227,161.367 313.756 C 154.024 304.956,150.560 297.395,149.782 288.466 C 149.422 284.342,149.656 284.378,152.600 288.898 C 167.205 311.323,188.447 325.917,187.483 312.864 C 187.187 308.860,183.468 298.400,182.341 298.400 C 181.723 298.400,181.981 299.355,183.588 303.019 C 192.190 322.632,181.370 321.597,163.321 301.080 C 152.649 288.948,139.826 267.720,142.540 266.678 C 143.502 266.309,144.247 267.213,146.273 271.200 C 149.008 276.583,154.848 285.712,155.280 285.280 C 155.488 285.072,154.490 283.115,152.873 280.562 C 147.268 271.712,144.031 265.138,144.579 263.712 C 145.080 262.406,147.779 263.440,148.175 265.089 C 148.951 268.322,159.200 282.764,159.200 280.625 C 159.200 280.528,157.481 278.017,155.381 275.045 C 150.625 268.314,147.881 263.200,149.026 263.200 C 150.770 263.200,159.585 271.026,166.148 278.400 C 168.792 281.370,171.100 283.860,171.277 283.933 C 173.216 284.734,166.468 276.873,159.213 269.878 L 154.339 265.179 156.401 262.799 C 167.061 250.493,182.085 249.981,192.568 261.565 C 193.431 262.518,194.000 262.641,194.000 261.875 C 194.000 260.329,184.747 254.121,180.458 252.789 C 177.504 251.872,172.414 251.779,169.600 252.590 M97.277 365.768 C 101.080 367.200,105.749 368.053,109.683 368.036 C 113.936 368.018,113.767 367.731,112.774 373.255 C 111.073 382.723,108.584 391.163,105.830 396.800 C 102.873 402.853,102.305 402.599,102.481 395.304 C 102.630 389.163,101.935 388.695,101.461 394.617 C 101.190 398.003,101.243 399.217,101.722 400.672 C 102.550 403.187,98.617 409.977,97.170 408.530 C 95.817 407.177,95.025 389.856,96.190 387.100 C 96.397 386.609,96.302 386.400,95.872 386.400 C 94.762 386.400,94.164 396.464,94.874 403.200 L 95.148 405.800 94.390 404.099 C 91.679 398.016,91.576 372.383,94.234 365.457 C 94.543 364.651,94.222 364.618,97.277 365.768 " stroke="none" fill="#201009" fill-rule="evenodd"></path><path id="path2" d="M0.032 102.300 C 0.049 158.565,0.156 204.369,0.269 204.087 C 0.383 203.804,1.546 203.033,2.855 202.372 L 5.234 201.171 4.017 199.694 C 1.422 196.546,2.301 195.600,7.820 195.600 L 11.574 195.600 11.518 193.473 C 11.420 189.738,12.444 189.485,16.540 192.232 L 19.271 194.065 23.936 193.391 C 26.516 193.018,32.462 192.623,37.242 192.507 L 45.884 192.298 46.402 188.387 C 47.050 183.491,46.725 169.716,45.779 162.000 C 44.646 152.749,45.103 141.175,46.782 136.636 C 46.946 136.194,46.823 134.846,46.508 133.642 C 38.528 103.083,39.716 66.839,49.651 37.689 C 54.826 22.508,63.131 5.691,67.624 1.298 L 68.952 0.000 34.476 0.000 L 0.000 0.000 0.032 102.300 M71.924 0.811 C 73.265 2.250,74.026 6.629,75.677 22.400 C 77.933 43.955,75.402 77.079,69.581 102.172 C 68.718 105.897,68.056 108.989,68.111 109.045 C 68.167 109.100,69.994 107.995,72.172 106.588 C 89.905 95.139,110.055 91.458,131.342 95.780 C 135.634 96.651,136.139 96.679,137.896 96.144 C 183.613 82.216,228.418 86.189,266.144 107.518 C 276.827 113.557,276.278 115.750,263.530 117.959 C 234.731 122.950,198.893 122.840,170.900 117.676 C 167.545 117.057,164.800 116.618,164.800 116.702 C 164.800 116.785,165.237 117.426,165.771 118.127 C 168.646 121.897,170.407 127.963,171.193 136.800 C 171.849 144.185,173.394 149.774,177.219 158.600 C 178.267 161.020,179.433 163.945,179.809 165.100 C 180.635 167.639,180.395 167.627,183.146 165.260 C 189.270 159.988,199.424 153.992,206.332 151.569 C 208.852 150.685,212.006 148.463,213.476 146.536 C 214.961 144.590,216.355 144.785,217.191 147.056 L 217.801 148.712 219.963 146.725 C 224.188 142.839,225.004 142.829,225.458 146.658 L 225.696 148.667 227.408 148.275 C 229.995 147.683,230.400 147.996,230.400 150.587 L 230.400 152.800 232.213 152.800 C 234.458 152.800,234.675 153.250,233.907 156.301 L 233.327 158.600 235.154 160.242 C 237.612 162.451,237.260 163.198,232.651 165.554 C 230.430 166.689,229.128 167.606,228.959 168.154 C 224.074 184.012,210.244 208.223,198.044 222.276 C 194.734 226.088,194.824 225.705,196.540 228.679 C 206.929 246.680,216.000 271.432,216.000 281.778 C 216.000 282.506,216.225 283.282,216.500 283.503 C 217.191 284.057,224.439 286.094,224.720 285.813 C 224.845 285.688,225.114 281.044,225.318 275.493 C 225.521 269.942,225.803 265.287,225.944 265.148 C 226.085 265.010,230.970 265.119,236.800 265.391 C 242.630 265.662,247.483 265.812,247.586 265.723 C 247.688 265.635,247.992 262.556,248.261 258.881 C 248.530 255.207,249.494 242.030,250.403 229.600 C 251.312 217.170,252.178 206.569,252.328 206.043 C 252.544 205.282,254.355 204.196,261.200 200.724 C 304.324 178.850,349.312 163.530,393.707 155.602 C 399.533 154.562,399.450 154.504,397.961 158.517 C 390.148 179.581,384.110 198.144,378.418 218.600 C 377.071 223.440,375.611 228.615,375.173 230.100 L 374.377 232.800 372.339 232.800 C 356.121 232.800,305.942 238.608,278.510 243.661 L 274.020 244.487 273.800 245.744 C 273.680 246.435,272.496 254.830,271.170 264.400 C 269.845 273.970,268.633 281.927,268.477 282.083 C 268.322 282.238,266.126 282.029,263.597 281.617 C 257.838 280.680,247.561 279.600,244.396 279.600 L 242.000 279.600 242.000 293.400 C 242.000 304.177,241.890 307.199,241.500 307.193 C 241.225 307.190,236.606 305.937,231.236 304.409 C 225.866 302.882,221.348 301.709,221.196 301.802 C 220.922 301.972,219.985 304.091,216.776 311.800 C 215.860 314.000,215.051 315.864,214.979 315.943 C 214.906 316.022,212.936 316.061,210.600 316.030 L 206.352 315.974 203.876 318.130 C 198.730 322.612,193.179 325.793,185.600 328.605 C 170.339 334.267,163.704 338.007,155.532 345.555 C 142.019 358.034,129.998 365.113,118.400 367.421 C 114.284 368.240,114.914 367.464,113.990 372.848 C 111.336 388.320,107.944 397.017,100.515 407.395 C 98.610 410.057,96.469 410.507,95.796 408.388 C 95.654 407.940,95.128 407.164,94.627 406.663 C 90.863 402.899,89.953 382.907,92.813 366.827 C 93.026 365.631,93.200 364.522,93.200 364.362 C 93.200 364.201,92.058 363.255,90.662 362.259 C 77.363 352.769,71.874 334.359,76.256 313.946 C 77.006 310.453,77.093 300.860,76.435 294.200 C 75.869 288.471,75.882 279.729,76.464 274.200 C 77.091 268.243,77.031 265.169,76.219 261.531 C 75.318 257.496,75.384 257.551,69.600 256.010 C 51.060 251.070,32.838 240.768,15.612 225.491 C 12.660 222.872,12.104 222.532,11.286 222.843 C 7.319 224.352,5.600 223.150,5.600 218.868 L 5.600 215.497 3.630 215.758 C 0.126 216.223,-0.287 213.949,2.612 210.148 C 3.987 208.346,3.864 207.816,1.800 206.662 L 0.000 205.656 0.000 308.228 L 0.000 410.800 200.000 410.800 L 400.000 410.800 400.000 205.400 L 400.000 0.000 235.584 0.000 L 71.169 0.000 71.924 0.811 M140.521 140.005 C 138.187 140.945,137.896 144.758,139.999 146.860 C 142.392 149.253,146.400 147.837,146.400 144.598 C 146.400 141.174,143.413 138.840,140.521 140.005 M68.829 155.900 C 66.706 157.630,66.596 161.334,68.615 163.100 C 72.483 166.482,77.754 159.863,74.102 156.211 C 72.861 154.970,70.166 154.811,68.829 155.900 " stroke="none" fill="#fbfbfb" fill-rule="evenodd"></path><path id="path3" d="M76.101 32.200 C 76.105 33.080,76.187 33.393,76.283 32.895 C 76.379 32.398,76.375 31.678,76.275 31.295 C 76.175 30.913,76.096 31.320,76.101 32.200 M74.687 38.285 C 75.008 38.513,75.219 40.252,75.307 43.415 L 75.441 48.200 75.421 43.233 C 75.404 39.168,75.291 38.236,74.800 38.102 C 74.370 37.985,74.338 38.037,74.687 38.285 M57.200 49.400 C 56.228 50.390,55.523 51.200,55.633 51.200 C 55.743 51.200,56.628 50.390,57.600 49.400 C 58.572 48.410,59.277 47.600,59.167 47.600 C 59.057 47.600,58.172 48.410,57.200 49.400 M76.109 53.600 C 76.109 54.590,76.187 54.995,76.282 54.500 C 76.378 54.005,76.378 53.195,76.282 52.700 C 76.187 52.205,76.109 52.610,76.109 53.600 M108.500 94.276 C 108.885 94.376,109.515 94.376,109.900 94.276 C 110.285 94.175,109.970 94.093,109.200 94.093 C 108.430 94.093,108.115 94.175,108.500 94.276 M117.700 94.276 C 118.085 94.376,118.715 94.376,119.100 94.276 C 119.485 94.175,119.170 94.093,118.400 94.093 C 117.630 94.093,117.315 94.175,117.700 94.276 M225.301 147.400 C 225.305 148.280,225.387 148.593,225.483 148.095 C 225.579 147.598,225.575 146.878,225.475 146.495 C 225.375 146.113,225.296 146.520,225.301 147.400 M156.101 149.000 C 156.105 149.880,156.187 150.193,156.283 149.695 C 156.379 149.198,156.375 148.478,156.275 148.095 C 156.175 147.713,156.096 148.120,156.101 149.000 M44.924 151.000 C 44.926 152.320,45.001 152.812,45.090 152.093 C 45.179 151.374,45.177 150.294,45.086 149.693 C 44.995 149.092,44.922 149.680,44.924 151.000 M174.705 161.483 C 175.202 161.579,175.922 161.575,176.305 161.475 C 176.687 161.375,176.280 161.296,175.400 161.301 C 174.520 161.305,174.207 161.387,174.705 161.483 M172.400 163.015 C 166.773 164.762,163.487 172.009,163.429 182.800 C 163.378 192.315,166.262 196.653,173.184 197.473 L 175.105 197.700 176.511 195.150 C 181.429 186.230,182.151 173.194,178.244 163.843 C 177.550 162.182,175.855 161.942,172.400 163.015 M47.693 172.400 C 47.693 173.170,47.775 173.485,47.876 173.100 C 47.976 172.715,47.976 172.085,47.876 171.700 C 47.775 171.315,47.693 171.630,47.693 172.400 M113.305 175.887 C 113.914 175.979,114.814 175.977,115.305 175.882 C 115.797 175.787,115.300 175.711,114.200 175.714 C 113.100 175.717,112.697 175.795,113.305 175.887 M46.928 180.000 C 46.928 181.430,47.001 182.015,47.089 181.300 C 47.178 180.585,47.178 179.415,47.089 178.700 C 47.001 177.985,46.928 178.570,46.928 180.000 M47.814 186.377 C 47.686 186.584,47.471 188.438,47.336 190.496 C 46.792 198.774,49.071 204.582,55.818 212.117 C 59.923 216.701,60.072 216.740,61.187 213.500 C 63.088 207.975,62.523 200.546,59.773 194.912 C 57.764 190.799,48.964 184.517,47.814 186.377 M118.000 187.842 C 113.290 188.391,105.951 193.005,104.994 196.019 C 104.858 196.448,104.583 196.800,104.383 196.800 C 103.879 196.800,102.800 198.982,102.800 200.002 C 102.800 200.465,103.520 201.904,104.400 203.200 C 105.280 204.496,106.000 205.759,106.000 206.006 C 106.000 207.668,116.265 220.623,119.360 222.868 C 124.993 226.954,130.421 219.302,132.602 204.200 C 133.526 197.805,133.305 189.858,132.200 189.684 C 131.760 189.615,131.040 189.396,130.600 189.196 C 128.345 188.174,121.481 187.436,118.000 187.842 M57.400 190.400 C 58.259 191.280,59.052 192.000,59.162 192.000 C 59.272 192.000,58.659 191.280,57.800 190.400 C 56.941 189.520,56.148 188.800,56.038 188.800 C 55.928 188.800,56.541 189.520,57.400 190.400 M32.100 192.676 C 32.485 192.776,33.115 192.776,33.500 192.676 C 33.885 192.575,33.570 192.493,32.800 192.493 C 32.030 192.493,31.715 192.575,32.100 192.676 M38.115 193.496 C 39.388 193.576,41.368 193.575,42.515 193.494 C 43.662 193.414,42.620 193.349,40.200 193.350 C 37.780 193.351,36.842 193.416,38.115 193.496 M11.600 195.133 C 11.600 195.453,10.309 195.626,7.500 195.684 L 3.400 195.767 7.365 195.899 C 11.030 196.021,12.616 195.683,11.873 194.940 C 11.723 194.790,11.600 194.877,11.600 195.133 M252.893 211.200 C 252.893 211.970,252.975 212.285,253.076 211.900 C 253.176 211.515,253.176 210.885,253.076 210.500 C 252.975 210.115,252.893 210.430,252.893 211.200 M56.400 214.600 C 57.146 215.370,57.847 216.000,57.957 216.000 C 58.067 216.000,57.546 215.370,56.800 214.600 C 56.054 213.830,55.353 213.200,55.243 213.200 C 55.133 213.200,55.654 213.830,56.400 214.600 M4.305 214.683 C 4.802 214.779,5.522 214.775,5.905 214.675 C 6.287 214.575,5.880 214.496,5.000 214.501 C 4.120 214.505,3.807 214.587,4.305 214.683 M252.501 216.600 C 252.505 217.480,252.587 217.793,252.683 217.295 C 252.779 216.798,252.775 216.078,252.675 215.695 C 252.575 215.313,252.496 215.720,252.501 216.600 M5.731 219.800 C 5.733 221.340,5.805 221.921,5.892 221.091 C 5.979 220.261,5.977 219.001,5.889 218.291 C 5.800 217.581,5.729 218.260,5.731 219.800 M252.093 222.000 C 252.093 222.770,252.175 223.085,252.276 222.700 C 252.376 222.315,252.376 221.685,252.276 221.300 C 252.175 220.915,252.093 221.230,252.093 222.000 M14.400 223.000 C 15.146 223.770,15.847 224.400,15.957 224.400 C 16.067 224.400,15.546 223.770,14.800 223.000 C 14.054 222.230,13.353 221.600,13.243 221.600 C 13.133 221.600,13.654 222.230,14.400 223.000 M190.193 228.900 L 185.800 233.400 190.300 229.007 C 194.480 224.926,194.982 224.400,194.693 224.400 C 194.634 224.400,192.609 226.425,190.193 228.900 M251.693 227.600 C 251.693 228.370,251.775 228.685,251.876 228.300 C 251.976 227.915,251.976 227.285,251.876 226.900 C 251.775 226.515,251.693 226.830,251.693 227.600 M190.790 229.900 L 187.800 233.000 190.989 230.000 C 192.742 228.350,194.257 226.955,194.355 226.900 C 194.453 226.845,194.364 226.800,194.157 226.800 C 193.949 226.800,192.434 228.195,190.790 229.900 M251.293 232.800 C 251.293 233.570,251.375 233.885,251.476 233.500 C 251.576 233.115,251.576 232.485,251.476 232.100 C 251.375 231.715,251.293 232.030,251.293 232.800 M367.300 231.887 C 367.905 231.978,368.895 231.978,369.500 231.887 C 370.105 231.795,369.610 231.720,368.400 231.720 C 367.190 231.720,366.695 231.795,367.300 231.887 M361.505 232.283 C 362.002 232.379,362.722 232.375,363.105 232.275 C 363.487 232.175,363.080 232.096,362.200 232.101 C 361.320 232.105,361.007 232.187,361.505 232.283 M355.500 232.682 C 355.995 232.778,356.805 232.778,357.300 232.682 C 357.795 232.587,357.390 232.509,356.400 232.509 C 355.410 232.509,355.005 232.587,355.500 232.682 M350.500 233.076 C 350.885 233.176,351.515 233.176,351.900 233.076 C 352.285 232.975,351.970 232.893,351.200 232.893 C 350.430 232.893,350.115 232.975,350.500 233.076 M345.700 233.476 C 346.085 233.576,346.715 233.576,347.100 233.476 C 347.485 233.375,347.170 233.293,346.400 233.293 C 345.630 233.293,345.315 233.375,345.700 233.476 M337.300 234.276 C 337.685 234.376,338.315 234.376,338.700 234.276 C 339.085 234.175,338.770 234.093,338.000 234.093 C 337.230 234.093,336.915 234.175,337.300 234.276 M250.493 243.600 C 250.493 244.370,250.575 244.685,250.676 244.300 C 250.776 243.915,250.776 243.285,250.676 242.900 C 250.575 242.515,250.493 242.830,250.493 243.600 M250.093 248.800 C 250.093 249.570,250.175 249.885,250.276 249.500 C 250.376 249.115,250.376 248.485,250.276 248.100 C 250.175 247.715,250.093 248.030,250.093 248.800 M173.500 253.082 C 173.995 253.178,174.805 253.178,175.300 253.082 C 175.795 252.987,175.390 252.909,174.400 252.909 C 173.410 252.909,173.005 252.987,173.500 253.082 M249.693 254.000 C 249.693 254.770,249.775 255.085,249.876 254.700 C 249.976 254.315,249.976 253.685,249.876 253.300 C 249.775 252.915,249.693 253.230,249.693 254.000 M249.301 259.400 C 249.305 260.280,249.387 260.593,249.483 260.095 C 249.579 259.598,249.575 258.878,249.475 258.495 C 249.375 258.113,249.296 258.520,249.301 259.400 M157.178 260.300 L 155.800 261.800 157.300 260.422 C 158.696 259.138,158.984 258.800,158.678 258.800 C 158.612 258.800,157.937 259.475,157.178 260.300 M158.000 261.000 C 157.028 261.990,156.323 262.800,156.433 262.800 C 156.543 262.800,157.428 261.990,158.400 261.000 C 159.372 260.010,160.077 259.200,159.967 259.200 C 159.857 259.200,158.972 260.010,158.000 261.000 M248.893 264.800 C 248.893 265.570,248.975 265.885,249.076 265.500 C 249.176 265.115,249.176 264.485,249.076 264.100 C 248.975 263.715,248.893 264.030,248.893 264.800 M228.305 266.283 C 228.802 266.379,229.522 266.375,229.905 266.275 C 230.287 266.175,229.880 266.096,229.000 266.101 C 228.120 266.105,227.807 266.187,228.305 266.283 M236.505 266.687 C 237.114 266.779,238.014 266.777,238.505 266.682 C 238.997 266.587,238.500 266.511,237.400 266.514 C 236.300 266.517,235.897 266.595,236.505 266.687 M245.100 267.082 C 245.595 267.178,246.405 267.178,246.900 267.082 C 247.395 266.987,246.990 266.909,246.000 266.909 C 245.010 266.909,244.605 266.987,245.100 267.082 M226.531 272.600 C 226.533 274.140,226.605 274.721,226.692 273.891 C 226.779 273.061,226.777 271.801,226.689 271.091 C 226.600 270.381,226.529 271.060,226.531 272.600 M225.309 275.200 C 225.309 276.190,225.387 276.595,225.482 276.100 C 225.578 275.605,225.578 274.795,225.482 274.300 C 225.387 273.805,225.309 274.210,225.309 275.200 M162.000 274.125 C 162.000 274.194,162.585 274.779,163.300 275.425 L 164.600 276.600 163.425 275.300 C 162.330 274.088,162.000 273.816,162.000 274.125 M227.970 276.697 C 227.091 277.692,227.084 277.723,227.902 277.033 C 228.975 276.128,228.935 276.093,229.592 278.511 C 229.877 279.563,230.186 280.347,230.279 280.254 C 230.442 280.092,229.247 275.600,229.041 275.600 C 228.985 275.600,228.503 276.094,227.970 276.697 M76.093 278.000 C 76.093 278.770,76.175 279.085,76.276 278.700 C 76.376 278.315,76.376 277.685,76.276 277.300 C 76.175 276.915,76.093 277.230,76.093 278.000 M246.705 278.683 C 247.202 278.779,247.922 278.775,248.305 278.675 C 248.687 278.575,248.280 278.496,247.400 278.501 C 246.520 278.505,246.207 278.587,246.705 278.683 M232.228 281.430 C 232.081 282.015,232.038 282.572,232.132 282.666 C 232.227 282.760,232.429 282.338,232.582 281.728 L 232.861 280.620 233.679 281.610 L 234.498 282.600 233.915 281.622 C 233.097 280.251,232.540 280.187,232.228 281.430 M230.456 281.200 C 230.456 281.530,230.611 282.160,230.800 282.600 C 231.017 283.104,231.144 283.178,231.144 282.800 C 231.144 282.470,230.989 281.840,230.800 281.400 C 230.583 280.896,230.456 280.822,230.456 281.200 M236.636 284.198 C 236.479 284.825,236.199 285.123,235.926 284.955 C 235.652 284.785,235.588 284.856,235.762 285.138 C 235.919 285.392,236.197 285.600,236.380 285.600 C 236.743 285.600,237.346 283.613,237.068 283.334 C 236.973 283.240,236.779 283.628,236.636 284.198 M148.501 286.200 C 148.505 287.080,148.587 287.393,148.683 286.895 C 148.779 286.398,148.775 285.678,148.675 285.295 C 148.575 284.913,148.496 285.320,148.501 286.200 M76.109 290.000 C 76.109 290.990,76.187 291.395,76.282 290.900 C 76.378 290.405,76.378 289.595,76.282 289.100 C 76.187 288.605,76.109 289.010,76.109 290.000 M214.901 292.200 C 214.905 293.080,214.987 293.393,215.083 292.895 C 215.179 292.398,215.175 291.678,215.075 291.295 C 214.975 290.913,214.896 291.320,214.901 292.200 M76.901 301.800 C 76.905 302.680,76.987 302.993,77.083 302.495 C 77.179 301.998,77.175 301.278,77.075 300.895 C 76.975 300.513,76.896 300.920,76.901 301.800 M167.400 307.200 C 169.812 309.620,171.876 311.600,171.986 311.600 C 172.096 311.600,170.212 309.620,167.800 307.200 C 165.388 304.780,163.324 302.800,163.214 302.800 C 163.104 302.800,164.988 304.780,167.400 307.200 M168.600 306.800 C 170.792 309.000,172.675 310.800,172.785 310.800 C 172.895 310.800,171.192 309.000,169.000 306.800 C 166.808 304.600,164.925 302.800,164.815 302.800 C 164.705 302.800,166.408 304.600,168.600 306.800 M210.678 307.005 C 210.312 307.772,210.095 308.400,210.196 308.400 C 210.470 308.400,211.684 305.951,211.501 305.768 C 211.414 305.681,211.044 306.238,210.678 307.005 M76.901 308.200 C 76.905 309.080,76.987 309.393,77.083 308.895 C 77.179 308.398,77.175 307.678,77.075 307.295 C 76.975 306.913,76.896 307.320,76.901 308.200 M187.701 313.800 C 187.705 314.680,187.787 314.993,187.883 314.495 C 187.979 313.998,187.975 313.278,187.875 312.895 C 187.775 312.513,187.696 312.920,187.701 313.800 M204.185 316.100 L 202.200 318.200 204.300 316.215 C 205.455 315.123,206.400 314.178,206.400 314.115 C 206.400 313.817,206.029 314.149,204.185 316.100 M183.105 318.283 C 183.602 318.379,184.322 318.375,184.705 318.275 C 185.087 318.175,184.680 318.096,183.800 318.101 C 182.920 318.105,182.607 318.187,183.105 318.283 M156.788 342.700 L 154.200 345.400 156.900 342.812 C 159.408 340.407,159.783 340.000,159.488 340.000 C 159.427 340.000,158.212 341.215,156.788 342.700 M157.785 343.300 L 155.800 345.400 157.900 343.415 C 159.055 342.323,160.000 341.378,160.000 341.315 C 160.000 341.017,159.629 341.349,157.785 343.300 M100.600 367.200 C 101.040 367.389,101.760 367.538,102.200 367.532 C 102.843 367.523,102.804 367.457,102.000 367.200 C 100.632 366.762,99.581 366.762,100.600 367.200 M108.500 367.094 C 109.545 367.176,111.255 367.176,112.300 367.094 C 113.345 367.012,112.490 366.944,110.400 366.944 C 108.310 366.944,107.455 367.012,108.500 367.094 M93.693 368.800 C 93.693 369.570,93.775 369.885,93.876 369.500 C 93.976 369.115,93.976 368.485,93.876 368.100 C 93.775 367.715,93.693 368.030,93.693 368.800 M106.300 368.282 C 106.795 368.378,107.605 368.378,108.100 368.282 C 108.595 368.187,108.190 368.109,107.200 368.109 C 106.210 368.109,105.805 368.187,106.300 368.282 M111.075 368.282 C 112.590 368.397,113.204 368.623,113.352 369.120 C 113.500 369.617,113.532 369.585,113.473 369.000 C 113.404 368.312,113.084 368.195,111.196 368.162 L 109.000 368.124 111.075 368.282 M92.150 387.800 C 92.151 390.220,92.216 391.158,92.296 389.885 C 92.376 388.612,92.375 386.632,92.294 385.485 C 92.214 384.338,92.149 385.380,92.150 387.800 M107.324 392.368 C 107.190 392.881,106.682 394.088,106.195 395.050 C 105.707 396.013,105.440 396.800,105.600 396.800 C 106.026 396.800,108.117 391.984,107.820 391.687 C 107.682 391.548,107.458 391.855,107.324 392.368 M102.493 393.600 C 102.493 394.370,102.575 394.685,102.676 394.300 C 102.776 393.915,102.776 393.285,102.676 392.900 C 102.575 392.515,102.493 392.830,102.493 393.600 " stroke="none" fill="#de3016" fill-rule="evenodd"></path></g></svg>